<svg width="28" height="28" viewBox="0 0 28 28" fill="none" xmlns="http://www.w3.org/2000/svg">
<path fill-rule="evenodd" clip-rule="evenodd" d="M15.1262 5.52338C14.8029 5.28786 14.3642 5.28786 14.0401 5.52338L8.11793 9.83105V20.6113C8.11793 21.1211 8.5317 21.5349 9.04153 21.5349H10.8887V15.9933C10.8887 14.4629 12.1291 13.2225 13.6595 13.2225H15.5067C17.0371 13.2225 18.2775 14.4629 18.2775 15.9933V21.5349H20.1247C20.6346 21.5349 21.0483 21.1211 21.0483 20.6113V9.83105L15.1262 5.52338ZM22.8955 11.174L24.1997 12.1225C24.6116 12.4227 25.1898 12.3312 25.4899 11.9184C25.7901 11.5065 25.6987 10.9283 25.2858 10.6281L16.2133 4.02992C15.2407 3.32336 13.9255 3.32336 12.953 4.02992L3.88045 10.6281C3.4676 10.9283 3.37709 11.5065 3.67633 11.9184C3.9765 12.3312 4.55468 12.4227 4.9666 12.1225L6.27073 11.174V20.6113C6.27073 22.1417 7.51112 23.3821 9.04153 23.3821H20.1247C21.6551 23.3821 22.8955 22.1417 22.8955 20.6113V11.174ZM16.4303 21.5349V15.9933C16.4303 15.4835 16.0166 15.0697 15.5067 15.0697H13.6595C13.1497 15.0697 12.7359 15.4835 12.7359 15.9933V21.5349H16.4303Z" fill="#ED1947"/>
</svg>
