<svg width="28" height="28" viewBox="0 0 28 28" fill="none" xmlns="http://www.w3.org/2000/svg">
<g opacity="0.14">
<path d="M14 3.5C19.799 3.5 24.5 8.20101 24.5 14C24.5 19.799 19.799 24.5 14 24.5C8.20101 24.5 3.5 19.799 3.5 14C3.5 8.20101 8.20101 3.5 14 3.5ZM14 9.42285C12.397 9.42285 11.0381 10.7362 11.0381 12.5645C11.0381 13.6282 11.3833 14.3212 12.1162 15.0137C12.3796 15.2318 12.5848 15.4838 12.7314 15.7617C13.0247 16.3177 13.0579 16.8922 12.9443 17.417C12.9211 17.5244 12.8956 17.61 12.8955 17.6006C12.6412 18.5451 11.9833 18.9504 10.54 19.4434L10.0596 19.6055C9.8733 19.6687 9.72797 19.7201 9.58887 19.7715C8.90453 20.0241 8.41504 20.2838 8.05957 20.6055C9.6336 22.022 11.7158 22.8848 14 22.8848C16.2832 22.8848 18.3637 22.0218 19.9375 20.6064C19.5852 20.2949 19.0997 20.0438 18.4082 19.7949C18.2877 19.7515 18.161 19.7081 18.001 19.6543L17.5859 19.5146C16.0835 19.0077 15.4073 18.598 15.1162 17.6387C15.0978 17.5816 15.076 17.4999 15.0566 17.3975C14.9662 16.9199 14.9866 16.402 15.2051 15.8926C15.3472 15.5612 15.5656 15.2638 15.8389 15.0361C16.6086 14.3407 16.9619 13.6292 16.9619 12.5645C16.9619 10.7679 15.5828 9.42285 14 9.42285ZM14 5.11523C9.09316 5.11523 5.11523 9.09316 5.11523 14C5.11523 16.0386 5.80339 17.9158 6.95801 19.415C7.48481 18.932 8.15833 18.5773 9.0293 18.2559C9.18396 18.1988 9.34224 18.1436 9.54102 18.0762L10.0176 17.915C10.9479 17.5973 11.2777 17.3935 11.3574 17.1104C11.3585 17.1056 11.3613 17.0932 11.3652 17.0752C11.4052 16.8901 11.3941 16.689 11.3027 16.5156C11.2554 16.426 11.1853 16.3404 11.0469 16.2236C9.97094 15.2104 9.42288 14.1083 9.42285 12.5645C9.42285 9.83151 11.517 7.80762 14 7.80762C16.4661 7.80762 18.5771 9.86659 18.5771 12.5645C18.5771 14.1129 18.0142 15.2486 16.8984 16.2559C16.7995 16.3387 16.7328 16.4283 16.6895 16.5293C16.6159 16.7008 16.6078 16.9077 16.6436 17.0967C16.6498 17.1297 16.6544 17.147 16.6572 17.1562C16.74 17.4291 17.0964 17.6449 18.1025 17.9844L18.5166 18.123C18.6863 18.1801 18.8224 18.2267 18.9551 18.2744C19.8405 18.5931 20.5132 18.939 21.04 19.416C22.1954 17.9165 22.8848 16.0393 22.8848 14C22.8848 9.09316 18.9068 5.11523 14 5.11523Z" fill="white"/>
</g>
</svg>
