<svg width="28" height="28" viewBox="0 0 28 28" fill="none" xmlns="http://www.w3.org/2000/svg">
<g opacity="0.14">
<path d="M11.7295 3.5C7.18464 3.50026 3.50013 7.18461 3.5 11.7295C3.5 16.2745 7.18456 19.9587 11.7295 19.959C13.6954 19.9589 15.5006 19.2693 16.916 18.1191L23.0469 24.251C23.3794 24.5832 23.9186 24.5834 24.251 24.251C24.5834 23.9186 24.5832 23.3794 24.251 23.0469L18.1191 16.9141C19.269 15.4988 19.959 13.6952 19.959 11.7295C19.9589 7.18453 16.2745 3.50013 11.7295 3.5ZM11.7295 5.20312C15.3341 5.20326 18.2557 8.1249 18.2559 11.7295C18.2559 15.3342 15.3342 18.2567 11.7295 18.2568C8.12494 18.2566 5.20215 15.3341 5.20215 11.7295C5.20228 8.12499 8.12502 5.20339 11.7295 5.20312Z" fill="white"/>
</g>
</svg>
