<svg width="28" height="28" viewBox="0 0 28 28" fill="none" xmlns="http://www.w3.org/2000/svg">
<g opacity="0.14">
<path fill-rule="evenodd" clip-rule="evenodd" d="M3.5 8.45837C3.5 7.0085 4.67512 5.83337 6.125 5.83337H21.875C23.3249 5.83337 24.5 7.0085 24.5 8.45837V18.9584C24.5 20.4082 23.3249 21.5834 21.875 21.5834H6.125C4.67512 21.5834 3.5 20.4082 3.5 18.9584V8.45837ZM6.125 7.58337C5.642 7.58337 5.25 7.97537 5.25 8.45837V9.33337H22.75V8.45837C22.75 7.97537 22.358 7.58337 21.875 7.58337H6.125ZM22.75 11.0834H5.25V18.9584C5.25 19.4414 5.642 19.8334 6.125 19.8334H21.875C22.358 19.8334 22.75 19.4414 22.75 18.9584V11.0834ZM7 17.2084C7 16.7254 7.392 16.3334 7.875 16.3334H13.125C13.608 16.3334 14 16.7254 14 17.2084C14 17.6914 13.608 18.0834 13.125 18.0834H7.875C7.392 18.0834 7 17.6914 7 17.2084Z" fill="white"/>
</g>
</svg>
